<?xml version="1.0" encoding="utf-8"?>
<!-- Generator: Adobe Illustrator 26.3.1, SVG Export Plug-In . SVG Version: 6.00 Build 0)  -->
<svg version="1.1" id="Layer_1" xmlns="http://www.w3.org/2000/svg" xmlns:xlink="http://www.w3.org/1999/xlink" x="0px" y="0px"
	 viewBox="0 0 200 200" style="enable-background:new 0 0 200 200;" xml:space="preserve">
<style type="text/css">
	.st0{fill:#4F4F4F;}
</style>
<g>
	<path class="st0" d="M93.11,86.26c-7.58,0-13.74,6.16-13.74,13.74c0,7.58,6.16,13.74,13.74,13.74s13.74-6.16,13.74-13.74
		C106.85,92.42,100.69,86.26,93.11,86.26z M93.11,110.07c-5.55,0-10.07-4.52-10.07-10.07s4.52-10.07,10.07-10.07
		c5.55,0,10.07,4.52,10.07,10.07S98.66,110.07,93.11,110.07z"/>
	<path class="st0" d="M121.14,95.24c0-1.01-0.82-1.83-1.83-1.83h-3.89l-0.12-0.38c-0.38-1.21-0.86-2.39-1.43-3.5l-0.18-0.36
		l2.16-2.16c0.35-0.35,0.54-0.81,0.54-1.3c0-0.49-0.19-0.95-0.54-1.3l-7.14-7.14c-0.69-0.69-1.9-0.69-2.59,0l-2.16,2.16l-0.35-0.18
		c-1.13-0.57-2.31-1.05-3.5-1.43l-0.38-0.12v-3.9c0-1.01-0.82-1.83-1.83-1.83h-9.53c-1.01,0-1.83,0.82-1.83,1.83v3.9l-0.38,0.12
		c-1.19,0.37-2.37,0.85-3.5,1.43l-0.35,0.18l-2.16-2.16c-0.69-0.69-1.9-0.69-2.59,0l-7.14,7.14c-0.35,0.35-0.54,0.81-0.54,1.3
		c0,0.49,0.19,0.95,0.54,1.3l2.16,2.16l-0.18,0.35c-0.57,1.11-1.05,2.29-1.43,3.5l-0.12,0.38l-3.89,0c-1.01,0-1.83,0.82-1.83,1.83
		v2.93H54.56v3.67h10.52v2.93c0,1.01,0.82,1.83,1.83,1.83h3.89l0.12,0.38c0.38,1.21,0.86,2.39,1.43,3.5l0.18,0.35l-2.16,2.16
		c-0.35,0.35-0.54,0.81-0.54,1.3s0.19,0.95,0.54,1.3l7.14,7.14c0.69,0.69,1.9,0.69,2.59,0l2.16-2.16l0.35,0.18
		c1.13,0.57,2.31,1.05,3.5,1.43l0.38,0.12v3.9c0,1.01,0.82,1.83,1.83,1.83h9.53c1.01,0,1.83-0.82,1.83-1.83v-3.9l0.38-0.12
		c1.19-0.37,2.37-0.85,3.5-1.43l0.35-0.18l2.16,2.16c0.69,0.69,1.9,0.69,2.59,0l7.14-7.14c0.35-0.35,0.54-0.81,0.54-1.3
		s-0.19-0.95-0.54-1.3l-2.16-2.16l0.18-0.35c0.57-1.11,1.05-2.29,1.43-3.5l0.12-0.38l3.89,0c1.01,0,1.83-0.82,1.83-1.83v-2.93h10.52
		v-3.67h-10.52V95.24z M112.21,104.36c-0.47,2.05-1.27,4.01-2.38,5.83c-0.44,0.73-0.33,1.65,0.27,2.25l1.85,1.85l-4.55,4.55
		l-1.85-1.85c-0.59-0.58-1.54-0.7-2.25-0.27c-1.81,1.11-3.77,1.91-5.83,2.38c-0.84,0.19-1.43,0.92-1.43,1.79v3.48h-5.86v-3.48
		c0-0.86-0.59-1.6-1.43-1.79c-2.05-0.47-4.01-1.27-5.83-2.38c-0.71-0.43-1.67-0.32-2.25,0.27l-1.85,1.86l-4.55-4.55l1.85-1.85
		c0.6-0.6,0.71-1.53,0.27-2.25c-1.11-1.81-1.91-3.77-2.38-5.83c-0.19-0.84-0.93-1.43-1.79-1.43h-3.48v-5.86h3.48
		c0.86,0,1.6-0.59,1.79-1.43c0.47-2.05,1.27-4.01,2.38-5.83c0.44-0.73,0.33-1.65-0.27-2.25l-1.85-1.85l4.55-4.55l1.85,1.85
		c0.59,0.59,1.54,0.7,2.25,0.27c1.81-1.11,3.78-1.91,5.83-2.38c0.84-0.19,1.42-0.92,1.42-1.79v-3.48h5.86v3.48
		c0,0.86,0.59,1.6,1.43,1.79c2.05,0.47,4.01,1.27,5.83,2.38c0.71,0.43,1.67,0.32,2.25-0.27l1.85-1.86l4.55,4.55l-1.85,1.85
		c-0.6,0.6-0.71,1.53-0.27,2.25c1.11,1.81,1.91,3.77,2.38,5.83c0.19,0.84,0.93,1.43,1.79,1.43h3.48v5.86H114
		C113.13,102.93,112.4,103.52,112.21,104.36z"/>
	<polygon class="st0" points="177.12,110.55 190,99.79 177.12,89.03 174.63,92 181.61,97.85 160.47,97.85 160.47,101.74 
		181.62,101.74 174.63,107.57 	"/>
	<path class="st0" d="M159.91,91.82c1.97,0,3.79,0.67,5.28,1.93l0.38,0.33l2.57-2.57l-0.44-0.39c-2.15-1.89-4.92-2.93-7.8-2.93
		c-3.16,0-6.13,1.23-8.36,3.46c-4.61,4.61-4.61,12.11,0,16.72c2.23,2.23,5.2,3.46,8.36,3.46c2.88,0,5.65-1.04,7.8-2.93l0.44-0.39
		l-2.57-2.57l-0.38,0.33c-1.49,1.26-3.32,1.93-5.28,1.93c-2.19,0-4.24-0.85-5.79-2.39c-1.54-1.54-2.39-3.6-2.39-5.79
		s0.85-4.24,2.39-5.79C155.66,92.67,157.72,91.82,159.91,91.82z"/>
	<path class="st0" d="M171.91,115.44l-1.36-1.36c-0.58-0.58-1.53-0.7-2.23-0.27c-1.5,0.92-3.12,1.58-4.81,1.96
		c-0.83,0.19-1.41,0.92-1.41,1.77v2.64h-4.37v-2.64c0-0.85-0.58-1.58-1.41-1.77c-1.69-0.39-3.31-1.05-4.81-1.96
		c-0.7-0.43-1.65-0.31-2.23,0.27l-1.36,1.36l-3.43-3.43l1.36-1.36c0.6-0.59,0.71-1.51,0.27-2.23c-0.91-1.5-1.58-3.12-1.96-4.81
		c-0.19-0.83-0.92-1.41-1.77-1.41h-2.64v-4.37h2.64c0.86,0,1.58-0.58,1.77-1.41c0.39-1.69,1.05-3.31,1.96-4.81
		c0.44-0.72,0.33-1.64-0.27-2.23L144.47,88l3.43-3.43l1.36,1.36c0.58,0.58,1.53,0.7,2.23,0.26c1.5-0.92,3.12-1.58,4.81-1.96
		c0.83-0.19,1.41-0.92,1.41-1.77v-2.64h4.37v2.64c0,0.85,0.58,1.58,1.41,1.77c1.69,0.39,3.31,1.05,4.81,1.96
		c0.7,0.43,1.66,0.32,2.23-0.27l1.36-1.36l3.18,3.18l2.73-2.41l-4.62-4.62c-0.69-0.69-1.88-0.69-2.57,0l-1.67,1.67l-0.12-0.06
		c-0.96-0.49-1.96-0.9-2.98-1.22l-0.13-0.04v-3.07c0-1-0.82-1.82-1.82-1.82h-8c-1,0-1.82,0.82-1.82,1.82v3.07l-0.13,0.04
		c-1.02,0.32-2.02,0.73-2.98,1.22l-0.12,0.06l-1.67-1.67c-0.69-0.69-1.88-0.69-2.57,0l-6,6c-0.34,0.34-0.53,0.8-0.53,1.29
		c0,0.49,0.19,0.94,0.53,1.28l1.67,1.67l-0.06,0.12c-0.48,0.95-0.89,1.95-1.22,2.98l-0.04,0.13l-3.07,0c-1,0-1.82,0.82-1.82,1.82v8
		c0,1,0.82,1.82,1.82,1.82h3.07l0.04,0.13c0.32,1.03,0.73,2.03,1.22,2.98l0.06,0.12l-1.67,1.67c-0.34,0.34-0.53,0.8-0.53,1.29
		c0,0.49,0.19,0.94,0.53,1.28l6,6c0.69,0.69,1.88,0.69,2.57,0l1.67-1.67l0.12,0.06c0.97,0.49,1.97,0.9,2.98,1.22l0.13,0.04v3.07
		c0,1,0.82,1.82,1.82,1.82h8c1,0,1.82-0.82,1.82-1.82v-3.07l0.13-0.04c1.02-0.32,2.02-0.73,2.98-1.22l0.12-0.06l1.67,1.67
		c0.69,0.69,1.88,0.69,2.57,0l4.4-4.4l-2.52-2.62L171.91,115.44z"/>
	<path class="st0" d="M48.63,76.96H17.96c-0.83,0-1.51,0.68-1.51,1.51v14.78h4.07V81.03h25.55v37.94H20.52v-12.22h-4.07v14.78
		c0,0.83,0.68,1.51,1.51,1.51h30.67c0.83,0,1.51-0.68,1.51-1.51V78.47C50.14,77.64,49.46,76.96,48.63,76.96z"/>
	<polygon class="st0" points="26.62,107.78 29.12,110.76 41.99,100 29.11,89.24 26.62,92.21 33.61,98.06 10,98.06 10,101.94 
		33.61,101.94 	"/>
</g>
</svg>
