<?xml version="1.0" encoding="utf-8"?>
<!-- Generator: Adobe Illustrator 26.3.1, SVG Export Plug-In . SVG Version: 6.00 Build 0)  -->
<svg version="1.1" id="Layer_1" xmlns="http://www.w3.org/2000/svg" xmlns:xlink="http://www.w3.org/1999/xlink" x="0px" y="0px"
	 viewBox="0 0 200 200" style="enable-background:new 0 0 200 200;" xml:space="preserve">
<style type="text/css">
	.st0{fill:#4F4F4F;}
</style>
<g>
	<path class="st0" d="M157.5,50.84H71.73v-8.35c0-1.37-1.12-2.5-2.5-2.5H51.9c-1.37,0-2.5,1.12-2.5,2.5v8.35l-6.9,0
		c-1.37,0-2.5,1.12-2.5,2.5v13.75c0,1.37,1.12,2.5,2.5,2.5h6.9v87.9c0,0.1,0.05,0.17,0.05,0.28c0.03,0.17,0.05,0.33,0.1,0.5
		c0.05,0.15,0.12,0.3,0.2,0.42c0.08,0.15,0.15,0.28,0.25,0.4c0.1,0.12,0.22,0.25,0.37,0.35c0.08,0.05,0.12,0.15,0.2,0.2
		c0.08,0.05,0.15,0.05,0.22,0.1c0.08,0.05,0.15,0.08,0.22,0.1c0.28,0.1,0.58,0.17,0.85,0.17H69.2c1.37,0,2.5-1.12,2.5-2.5l0-87.93
		h48v10.07c-3.65,1.07-6.3,4.48-6.3,8.48c0,3.02,1.55,5.7,3.87,7.27l-17.02,11.1h-8.6c-1.37,0-2.5,1.12-2.5,2.5v36.55
		c0,1.37,1.12,2.5,2.5,2.5h63.67c1.37,0,2.5-1.12,2.5-2.5v-36.55c0-1.37-1.12-2.5-2.5-2.5h-8.57L128.3,94.48
		c1.68-1.6,2.75-3.85,2.75-6.35c0-1.37-1.12-2.5-2.5-2.5c-1.37,0-2.5,1.12-2.5,2.5c0,2.1-1.73,3.8-3.83,3.8c-2.1,0-3.8-1.7-3.8-3.8
		c0-2.1,1.7-3.83,3.8-3.83c1.37,0,2.5-1.12,2.5-2.5v-12.2l32.77,0c1.37,0,2.5-1.12,2.5-2.5V53.36
		C160,51.96,158.88,50.83,157.5,50.84L157.5,50.84z M152.85,143.06H94.18v-31.55h6.77H101h0.05h44.92h0.05h0.05h6.77L152.85,143.06z
		 M109.43,106.51l14.1-9.18l14.1,9.18H109.43z M54.4,44.99h12.32v5.85H54.4V44.99z M66.73,121.24l-11.78-17.23l11.78-16.6V121.24z
		 M66.25,129.39L54.4,148.64v-36.58L66.25,129.39z M56.38,154.99l10.35-16.82v16.82H56.38z M66.73,78.76L54.4,96.14V69.59h12.32
		V78.76z M155,64.59H45v-8.75h6.88h0.03h0.03H69.2h0.03h0.03H155L155,64.59z"/>
</g>
</svg>
