<?xml version="1.0" encoding="utf-8"?>
<!-- Generator: Adobe Illustrator 26.3.1, SVG Export Plug-In . SVG Version: 6.00 Build 0)  -->
<svg version="1.1" id="Layer_1" xmlns="http://www.w3.org/2000/svg" xmlns:xlink="http://www.w3.org/1999/xlink" x="0px" y="0px"
	 viewBox="0 0 200 200" style="enable-background:new 0 0 200 200;" xml:space="preserve">
<style type="text/css">
	.st0{fill:#4F4F4F;}
</style>
<g>
	<g>
		<path class="st0" d="M116.1,67.24l17.21,17.23c1.03,1.05,2.44,1.65,3.91,1.65c1.47,0,2.88-0.59,3.91-1.65l17.23-17.23
			c1.05-1.03,1.64-2.43,1.64-3.9c0-1.47-0.59-2.87-1.64-3.9l-17.25-17.25c-1.03-1.06-2.44-1.65-3.91-1.65
			c-1.47,0-2.88,0.6-3.91,1.65l-17.2,17.23c-1.06,1.03-1.65,2.44-1.65,3.91C114.45,64.8,115.05,66.21,116.1,67.24L116.1,67.24z
			 M119.61,62.93l17.21-17.23c0.1-0.13,0.24-0.2,0.4-0.2c0.16,0,0.31,0.07,0.4,0.2l17.23,17.23c0.12,0.1,0.2,0.25,0.2,0.4
			c0,0.16-0.07,0.31-0.2,0.4l-17.23,17.23c-0.1,0.12-0.24,0.2-0.4,0.2c-0.16,0-0.31-0.07-0.4-0.2l-17.25-17.23
			c-0.13-0.1-0.2-0.24-0.2-0.4c0-0.16,0.07-0.31,0.2-0.4H119.61z"/>
		<path class="st0" d="M60.94,42.39c-5.55,0-10.88,2.21-14.8,6.13C42.21,52.45,40,57.77,40,63.33s2.21,10.88,6.13,14.8
			c3.93,3.93,9.25,6.13,14.8,6.13c5.55,0,10.88-2.21,14.8-6.13c3.93-3.93,6.13-9.25,6.13-14.8c-0.01-5.55-2.21-10.87-6.14-14.8
			S66.49,42.4,60.94,42.39z M60.94,79.32c-4.24,0-8.3-1.68-11.3-4.68c-3-3-4.68-7.06-4.68-11.3s1.68-8.3,4.68-11.3
			c3-3,7.06-4.68,11.3-4.69c4.24,0,8.3,1.68,11.3,4.67c3,3,4.68,7.06,4.69,11.3c0,4.24-1.69,8.3-4.68,11.3
			C69.24,77.63,65.18,79.31,60.94,79.32L60.94,79.32z"/>
		<path class="st0" d="M100.46,73.35l11.97-10.02l-11.97-10.01l-3.18,3.8l4.47,3.73H86.12v4.95h15.62l-4.47,3.74L100.46,73.35z"/>
		<path class="st0" d="M134.73,88.86v15.61l-3.73-4.47l-3.8,3.18l10.01,11.98l10.01-11.98l-3.79-3.18l-3.74,4.47V88.86H134.73z"/>
		<path class="st0" d="M78.8,120.67H43.01v35.73H78.8V120.67z M73.85,151.45H47.97v-25.82h25.88V151.45z"/>
		<path class="st0" d="M116.28,138.52c0,5.56,2.21,10.88,6.14,14.81c3.93,3.93,9.26,6.13,14.82,6.13c5.55,0,10.88-2.22,14.8-6.15
			c3.92-3.93,6.12-9.26,6.11-14.82c-0.01-5.56-2.23-10.88-6.16-14.8c-3.94-3.92-9.27-6.12-14.82-6.1
			c-5.54,0.02-10.85,2.23-14.76,6.16C118.49,127.67,116.28,132.98,116.28,138.52L116.28,138.52z M137.16,122.54
			c4.24,0,8.3,1.68,11.3,4.68c3,3,4.68,7.06,4.68,11.3c0,4.24-1.68,8.3-4.68,11.3c-3,3-7.06,4.68-11.3,4.68
			c-4.24,0-8.3-1.68-11.3-4.68c-3-3-4.68-7.06-4.68-11.3c0.01-4.24,1.69-8.3,4.69-11.29C128.87,124.24,132.93,122.55,137.16,122.54
			L137.16,122.54z"/>
		<path class="st0" d="M99.76,144.74L95.3,141h15.61v-4.96H95.3l4.46-3.73l-3.18-3.8l-11.97,10.01l11.97,10.02L99.76,144.74z"/>
	</g>
</g>
</svg>
