<?xml version="1.0" encoding="utf-8"?>
<!-- Generator: Adobe Illustrator 26.3.1, SVG Export Plug-In . SVG Version: 6.00 Build 0)  -->
<svg version="1.1" id="Layer_1" xmlns="http://www.w3.org/2000/svg" xmlns:xlink="http://www.w3.org/1999/xlink" x="0px" y="0px"
	 viewBox="0 0 200 200" style="enable-background:new 0 0 200 200;" xml:space="preserve">
<style type="text/css">
	.st0{fill:#4F4F4F;}
</style>
<path class="st0" d="M159.97,127.49c-2.19-5.9-7.57-7.04-13.26-8.25l-0.98-0.21V104.6h-43.1v-9.43l16.73,0.01
	c3.04,0,6.08,0,9.12-0.01c4.73-0.02,9.09-1.85,12.28-5.17c3.19-3.32,4.86-7.75,4.7-12.49c-0.31-8.71-7.96-16.06-16.71-16.06
	c-0.76,0-1.52,0.06-2.26,0.16c-0.33,0.05-0.66,0.08-1,0.11l-1.31,0.14l-0.22-0.86c-0.13-0.51-0.25-1.03-0.36-1.55
	c-0.24-1.05-0.46-2.04-0.81-2.98c-3.46-9.31-10.14-14.79-19.87-16.28c-0.21-0.03-0.4-0.09-0.61-0.16l-4.5-0.03l-0.11,0.01
	c-0.56,0.13-1.13,0.25-1.7,0.36c-1.32,0.27-2.57,0.53-3.76,0.97c-8.64,3.2-13.96,9.4-15.83,18.44l-0.44,2.09l-1.34-0.15
	c-0.32-0.03-0.64-0.07-0.96-0.11c-0.75-0.11-1.52-0.16-2.27-0.16c-8.2,0-15.49,6.21-16.6,14.15c-0.66,4.72,0.52,9.34,3.32,13.02
	c2.66,3.5,6.52,5.75,10.87,6.33c0.97,0.13,2,0.2,3.07,0.2c3.97,0.01,7.95,0.01,11.92,0.01l13.42,0v9.37H54.36v14.08l-0.69,0.23
	c-0.92,0.31-1.82,0.59-2.73,0.88c-1.95,0.62-3.8,1.2-5.55,1.97c-2.98,1.32-4.69,3.25-5.22,5.9c-0.11,0.56-0.13,1.17-0.13,1.69
	c0,2.16,0,4.32,0.01,6.47l0,0.15c0.01,4.38,0.03,8.91-0.05,13.41c-0.06,3.24,1.23,5.57,4.04,7.35c4.1,2.59,8.96,3.62,15.18,3.21
	c3.64-0.24,6.71-1.06,9.38-2.52c2.99-1.63,4.53-3.45,5.01-5.92c0.11-0.55,0.12-1.14,0.12-1.7c0-2,0-3.99-0.01-5.99l0-0.68
	c-0.01-4.41-0.02-8.98,0.04-13.47c0.04-2.98-1.14-5.19-3.72-6.97c-2.48-1.71-5.46-2.73-9.66-3.33l-0.88-0.12v-9.41h37.84v9.13
	l-0.75,0.2c-0.63,0.17-1.27,0.33-1.92,0.5c-1.38,0.35-2.81,0.71-4.15,1.17c-2.68,0.92-4.65,2.25-6.02,4.07
	c-0.91,1.2-1.35,2.48-1.35,3.92l-0.01,3.99c-0.01,5.86-0.02,11.71,0.01,17.57c0.01,2.55,1.27,4.56,3.96,6.33
	c2.83,1.86,6.14,2.88,10.42,3.22c5.46,0.43,10-0.37,14.03-2.45c3.03-1.56,4.67-3.48,5.16-6.04c0.1-0.52,0.11-1.08,0.11-1.7
	c0-2.15,0-4.3-0.01-6.46c-0.01-4.21-0.02-8.99,0.04-13.57c0.05-3.02-1.15-5.26-3.77-7.05c-2.13-1.46-4.63-2.41-7.88-3.01
	c-0.27-0.05-1.85-0.32-2.62-0.45v-9.34h37.89v8.86l-0.69,0.23c-0.88,0.3-1.75,0.57-2.65,0.85c-1.95,0.61-3.79,1.19-5.55,1.97
	c-2.98,1.32-4.68,3.25-5.21,5.9c-0.11,0.56-0.12,1.17-0.13,1.7c0,2.06,0.01,4.13,0.02,6.2c0.03,4.37,0.05,8.9-0.08,13.37
	c-0.11,3.87,1.55,6.57,5.22,8.49c3.37,1.76,7.03,2.62,11.2,2.62c0.91,0,1.85-0.04,2.8-0.13c2.07-0.18,4.19-0.6,6.31-1.23
	c4.42-1.33,7.02-3.55,8.2-7l0.03-23.96L159.97,127.49z M67.25,130.74c-2.8,1.95-5.96,2.43-8.96,2.65c-0.18,0.01-0.37,0.02-0.55,0.02
	l-0.84-0.01c-4.02-0.03-6.97-0.69-9.56-2.15c-0.56-0.31-0.99-0.77-1.42-1.21c-0.13-0.14-0.27-0.28-0.41-0.41l-0.78-0.72l0.76-0.75
	c0.14-0.14,0.27-0.29,0.45-0.49c0.37-0.42,0.83-0.94,1.43-1.27c3.41-1.86,7.28-2.52,11.93-2.01c1.71,0.19,3.37,0.67,4.97,1.13
	l0.73,0.21c0.86,0.24,1.6,0.73,2.28,1.21c0.65,0.45,1.31,1.03,1.3,1.89C68.58,129.7,67.91,130.28,67.25,130.74z M68.65,149.27
	c0.1,2-1.21,2.83-1.71,3.14c-2.16,1.37-4.72,2.12-8.03,2.38c-4.02,0.31-7.51-0.22-10.73-1.62c-1.53-0.67-3.26-1.81-3.09-4.76
	c0.14-2.48,0.11-4.96,0.08-7.68c-0.01-1.03-0.02-2.08-0.02-3.13v-1.45l1.36,0.5c6.94,2.52,13.81,2.52,20.75,0l1.36-0.49v7.46
	c0,0.56-0.01,1.12-0.01,1.7C68.6,146.61,68.59,147.95,68.65,149.27z M81.26,66.33c-0.72-7.98,2.21-14.11,8.71-18.23
	c6.51-4.13,13.56-4.13,20.08-0.01c6.4,4.05,9.42,10.35,8.72,18.22l-0.39,4.41l1.39-0.82c1.26-0.75,2.57-1.53,3.93-2.18
	c1.57-0.76,3.25-1.15,4.97-1.15c2.95,0,5.78,1.14,7.98,3.21c3.49,3.29,4.63,8.32,2.9,12.8c-1.68,4.35-5.97,7.35-10.68,7.47
	c-0.27,0.01-0.53,0.01-0.8,0.01l-31.88,0c-8.17,0-16.34,0-24.51-0.01c-3.39,0-6.5-1.29-8.75-3.64c-2.21-2.3-3.36-5.37-3.23-8.65
	c0.24-6.17,5.48-11.18,11.68-11.18c1.58,0,3.13,0.33,4.59,0.99c1.51,0.68,2.96,1.54,4.38,2.37l1.31,0.77L81.26,66.33z
	 M131.42,140.94l-0.5-0.02l0,0l0.5,0c0-0.82-0.01-3.49-0.01-4.78l1.37,0.5c6.92,2.52,13.79,2.52,20.75,0.01l1.36-0.49v10.21
	c0,0.26-0.01,0.52-0.02,0.82c-0.02,0.54-0.04,1.05,0.03,1.52c0.28,1.82-0.51,3.17-2.41,4.13c-3.38,1.7-7.14,2.32-11.78,1.9
	c-2.86-0.26-5.25-0.96-7.32-2.14c-1.41-0.8-2.04-1.91-2.01-3.47C131.44,146.41,131.43,143.75,131.42,140.94z M153.79,130.54
	c-2.23,1.7-4.83,2.28-6.85,2.6c-0.92,0.15-1.83,0.21-2.56,0.25c-0.26,0.02-0.5,0.03-0.69,0.05l-0.11,0
	c-3.26-0.07-6.71-0.37-9.92-2.16c-0.58-0.33-1.03-0.8-1.47-1.28c-0.14-0.15-0.28-0.3-0.43-0.44l-0.78-0.74l0.78-0.74
	c0.15-0.14,0.29-0.29,0.47-0.49c0.38-0.4,0.85-0.91,1.44-1.23c2.66-1.43,5.66-2.13,9.18-2.13c0.87,0,1.77,0.04,2.73,0.13
	c2.77,0.24,5.09,0.91,7.11,2.03c0.31,0.17,0.6,0.38,0.92,0.61l0.17,0.12c0.68,0.49,1.02,1.04,1.03,1.67
	C154.82,129.44,154.49,130.01,153.79,130.54z M110.86,130.08c-0.41,0.43-0.93,0.97-1.57,1.31c-3.38,1.77-7.2,2.39-11.7,1.88
	c-1.49-0.17-2.96-0.57-4.38-0.97c-0.4-0.11-0.79-0.22-1.19-0.32c-0.64-0.17-1.21-0.51-1.75-0.83c-0.94-0.56-1.91-1.27-1.91-2.32
	c0-1.03,0.89-1.71,1.86-2.29c2.88-1.72,6.08-2.12,8.55-2.28c0.17-0.01,0.33-0.01,0.5-0.01l0.77,0.01c2.62,0.02,6.03,0.27,9.23,1.99
	c0.63,0.34,1.12,0.82,1.62,1.31c0.17,0.16,0.33,0.33,0.5,0.48l0.85,0.75l-0.84,0.77C111.23,129.7,111.07,129.86,110.86,130.08z
	 M88.3,140.92c-0.01-1.1-0.03-2.2-0.03-3.33v-1.45l1.37,0.5c6.91,2.52,13.79,2.52,20.75,0.01l1.36-0.49v5.53
	c0,0.74,0,1.47-0.01,2.29c-0.01,1.74-0.02,3.54,0.04,5.29c0.07,2.05-1.29,2.89-1.8,3.21c-2.22,1.36-4.81,2.11-8.17,2.33
	c-4,0.27-7.45-0.28-10.6-1.69c-1.48-0.67-3.17-1.8-3-4.7C88.37,145.96,88.34,143.51,88.3,140.92z"/>
</svg>
