<?xml version="1.0" encoding="utf-8"?>
<!-- Generator: Adobe Illustrator 26.3.1, SVG Export Plug-In . SVG Version: 6.00 Build 0)  -->
<svg version="1.1" id="Layer_1" xmlns="http://www.w3.org/2000/svg" xmlns:xlink="http://www.w3.org/1999/xlink" x="0px" y="0px"
	 viewBox="0 0 200 200" style="enable-background:new 0 0 200 200;" xml:space="preserve">
<style type="text/css">
	.st0{fill:#4F4F4F;}
</style>
<g>
	<path class="st0" d="M40,45.22v109.55c0,1.1,0.9,2,2,2h116c1.1,0,2-0.9,2-2V45.22c0-1.1-0.9-2-2-2H42C40.9,43.22,40,44.12,40,45.22
		z M45.31,55.96v-7.42h109.37v7.42H45.31z M45.31,151.46V61.27h109.37v90.19H45.31z"/>
	<polygon class="st0" points="62.85,106.68 85.43,84.1 89.41,88.09 70.82,106.68 89.41,125.27 85.43,129.25 	"/>
	<polygon class="st0" points="110.59,125.26 129.18,106.68 110.59,88.08 114.57,84.1 137.15,106.68 114.57,129.25 	"/>
	
		<rect x="72.06" y="103.5" transform="matrix(0.2851 -0.9585 0.9585 0.2851 -30.0838 172.3042)" class="st0" width="56.81" height="5.64"/>
</g>
</svg>
