<?xml version="1.0" encoding="utf-8"?>
<!-- Generator: Adobe Illustrator 26.3.1, SVG Export Plug-In . SVG Version: 6.00 Build 0)  -->
<svg version="1.1" id="Layer_1" xmlns="http://www.w3.org/2000/svg" xmlns:xlink="http://www.w3.org/1999/xlink" x="0px" y="0px"
	 viewBox="0 0 200 200" style="enable-background:new 0 0 200 200;" xml:space="preserve">
<style type="text/css">
	.st0{fill:#4F4F4F;}
 
</style>
<g>
	<path class="st0" d="M90.77,83.85H53.85c-1.38,0-2.31,0.92-2.31,2.31v41.54c0,1.38,0.92,2.31,2.31,2.31h36.92
		c1.38,0,2.31-0.92,2.31-2.31V86.15C93.08,84.77,92.15,83.85,90.77,83.85z M56.38,125.38c1.15-5.31,5.77-9.23,11.31-9.23h9.23
		c5.54,0,10.15,3.92,11.31,9.23H56.38z M72.31,111.54c-3.92,0-6.92-3-6.92-6.92c0-3.92,3-6.92,6.92-6.92c3.92,0,6.92,3,6.92,6.92
		C79.23,108.54,76.23,111.54,72.31,111.54z M81.08,112c1.85-2.08,2.77-4.62,2.77-7.38c0-6.46-5.08-11.54-11.54-11.54
		s-11.54,5.08-11.54,11.54c0,2.77,1.15,5.54,2.77,7.38c-2.77,0.69-5.31,2.31-7.38,4.38V88.46h32.31v27.92
		C86.38,114.31,83.84,112.92,81.08,112z"/>
	<path class="st0" d="M102.31,95.38h41.54v-4.62h-41.54V95.38z"/>
	<path class="st0" d="M143.85,104.62h-41.54v4.62h41.54V104.62z"/>
	<path class="st0" d="M102.31,123.08h41.54v-4.62h-41.54V123.08z"/>
	<path class="st0" d="M157.69,70h-48.46V58.46c0-1.38-0.92-2.31-2.31-2.31H93.08c-1.38,0-2.31,0.92-2.31,2.31V70H42.31
		C40.92,70,40,70.92,40,72.31v69.23c0,1.38,0.92,2.31,2.31,2.31h115.38c1.38,0,2.31-0.92,2.31-2.31V72.31
		C160,70.92,159.08,70,157.69,70z M95.38,60.77h9.23v16.15h-9.23V60.77z M155.38,139.23H44.62V74.62h46.15v4.62
		c0,1.38,0.92,2.31,2.31,2.31h13.85c1.38,0,2.31-0.92,2.31-2.31v-4.62h46.15V139.23z"/>
</g>
</svg>
